PathFileType	4	(X/Y/Z)	C:/Users/beibeiliu/ov580/test_trc/User3\sequence.12_training_dense_left.trc
DataRate	CameraRate	NumFrames	NumMarkers	Units	OrigDataRate	OrigDataStartFrame	OrigNumFrames
120	120	19	19	mm	120	26	75
Frame#	Time	ThumbCMC			ThumbMCP			ThumbIP			ThumbTip			IndexMCP			IndexPIP			IndexTip			MiddleMCP			MiddlePIP			MiddleTip			RingMCP			RingPIP			RingTip			PinkyMCP			PinkyPIP			PinkyTip			BackHand1			BackHand2			BackHand3	
		X0	Y0	Z0	X1	Y1	Z1	X2	Y2	Z2	X3	Y3	Z3	X4	Y4	Z4	X5	Y5	Z5	X6	Y6	Z6	X7	Y7	Z7	X8	Y8	Z8	X9	Y9	Z9	X10	Y10	Z10	X11	Y11	Z11	X12	Y12	Z12	X13	Y13	Z13	X14	Y14	Z14	X15	Y15	Z15	X16	Y16	Z16	X17	Y17	Z17	X18	Y18	Z18	
25	0.208333	-140.175	21.9596	56.8629	-131.911	31.6604	23.1818	-136.499	36.0476	-8.67446	-145.225	29.9949	-30.9735	-193.054	47.1314	3.03823	-182.536	40.0842	-26.6462	-163.769	19.7303	-38.2609	-218.26	40.6086	11.5422	-224.415	47.2393	-18.0417	-223.779	40.7124	-51.7124	-228.256	16.4273	19.8665	-241.197	20.5645	-5.9872	-245.794	17.2671	-34.531	-224.954	-5.39534	25.8649	-237.757	-6.79692	5.94609	-243.05	-8.38296	-17.3283	-202.141	1.97649	68.5743	-187.527	-4.33178	88.2246	-175.738	23.2828	74.4955	
26	0.216667	-129.743	18.0126	49.2319	-122.643	22.1991	16.3638	-128.474	26.3203	-11.7758	-141.846	23.3175	-31.9202	-167.987	60.3376	2.53924	-170.86	51.0735	-28.6804	-162.993	25.2381	-40.8569	-201.038	62.8913	9.55193	-202.381	72.5617	-17.1893	-206.485	72.1402	-49.5015	-213.869	49.5191	18.0646	-226.39	58.3009	-5.19604	-234.646	60.9615	-32.9068	-224.476	23.006	28.1552	-235.619	31.8606	6.74368	-247.459	34.0359	-11.9786	-198.625	24.8966	62.3233	-187.475	7.1312	88.5853	-162.371	32.4173	69.0131	
27	0.225	-124.907	12.1347	43.1687	-111.544	11.0324	11.0656	-115.562	16.8634	-22.5329	-129.718	14.5762	-43.9834	-154.97	57.5921	-7.92999	-152.358	44.6624	-41.4328	-156.01	16.4054	-48.0245	-178.516	69.5638	-3.90434	-186.722	76.4764	-30.731	-187.442	75.2804	-66.4768	-200.107	56.9434	8.9915	-210.056	68.0485	-17.1721	-218.366	71.2335	-39.2864	-214.616	36.9709	20.2327	-221.436	45.1133	2.06241	-233.31	50.0631	-20.8095	-182.053	34.9143	53.7593	-179.543	17.1199	79.0355	-152.19	36.5267	57.955	
28	0.233333	-108.399	14.1182	34.6368	-101.452	7.04464	7.31963	-103.486	6.09567	-24.8927	-117.068	3.20092	-45.0063	-135.989	53.7163	-24.041	-138.033	37.2878	-50.2465	-141.385	2.21662	-53.194	-157.419	67.0176	-15.7944	-163.264	72.8307	-48.7227	-168.85	66.5767	-76.3379	-180.162	61.4233	-8.31052	-187.146	70.5988	-33.0566	-194.878	71.0153	-56.4644	-194.735	44.5234	6.69088	-207.75	50.6367	-14.5351	-217.247	54.3838	-35.8058	-171.217	45.9109	41.1113	-164.097	29.4815	70.927	-135.864	42.0603	50.3837	
29	0.241667	-97.4533	14.7259	33.0658	-90.6078	6.38668	1.84863	-87.3566	-1.62618	-28.5094	-104.043	-6.46195	-50.1405	-121.196	49.7454	-32.2586	-121.133	28.4526	-58.5552	-123.698	-5.28012	-56.0495	-145.052	67.412	-30.0612	-146.955	67.0555	-60.6192	-150.246	55.148	-93.9836	-162.809	62.0068	-20.1259	-170.553	66.9341	-45.9563	-180.496	63.3426	-70.6962	-178.533	48.1232	-5.87177	-191.404	52.7462	-28.4047	-198.477	50.6699	-50.9568	-151.241	51.0218	33.0705	-150.497	40.6709	58.7186	-120.026	47.7545	40.7748	
30	0.25	-93.0764	20.1005	27.5804	-80.0579	4.48508	-0.878422	-84.7629	-5.90411	-25.2127	-99.6038	-12.1199	-48.1859	-106.964	42.2595	-43.6578	-113.401	21.36	-61.9772	-120.077	-13.5213	-55.4977	-133.675	62.2194	-37.2801	-137.164	58.8528	-70.3733	-141.505	41.608	-97.0735	-152.71	61.2776	-30.979	-162.062	59.4863	-57.8677	-163.668	47.8589	-83.3262	-171.432	49.0724	-15.7608	-181.375	47.5549	-35.6549	-188.576	39.1505	-62.7694	-147.009	59.6469	22.4003	-144.162	50.6404	52.8382	-113.082	53.8545	32.3012	
31	0.258333	-88.4373	25.1788	30.4299	-75.8255	3.84797	4.05939	-79.8571	-8.58893	-19.4561	-90.0239	-21.8813	-42.0867	-107.042	34.5942	-45.8233	-106.149	8.91105	-60.922	-111.275	-21.9193	-50.6411	-129.362	52.9739	-48.2109	-132.514	41.0798	-76.0568	-135.232	17.0992	-100.327	-152.001	50.641	-34.4925	-156.167	44.6876	-60.1718	-161.095	24.3393	-83.892	-169.935	41.9272	-16.6971	-180.177	34.4198	-41.4578	-183.165	20.698	-58.6246	-143.1	61.3116	16.7262	-139.367	57.6803	47.7978	-106.497	56.9094	24.9304	
32	0.266667	-88.363	31.3412	31.9742	-75.6277	8.45712	12.8793	-73.1109	-12.623	-9.49845	-85.8976	-27.3083	-27.0297	-103.301	27.1664	-39.7549	-104.241	-4.28728	-53.3244	-107.267	-31.9947	-38.9424	-132.194	37.6	-45.5806	-133.172	20.8615	-72.6059	-131.419	-10.1573	-88.9665	-150.055	36.6884	-36.1763	-157.328	23.3938	-58.9443	-158.883	-2.4286	-74.6728	-171.268	28.9816	-17.796	-174.08	16.0217	-39.5083	-176.169	-7.20981	-53.6264	-147.325	58.2507	11.5296	-142.849	61.8133	43.4124	-115.673	59.2078	23.3025	
33	0.275	-87.8279	42.2641	36.0076	-71.3222	16.6482	20.2493	-65.5756	-9.07207	0.706159	-71.7985	-27.0075	-8.76244	-104.327	16.4944	-34.5329	-96.0974	-14.479	-42.027	-91.306	-38.4087	-21.4754	-127.526	18.4955	-44.5416	-124.642	-3.33897	-63.3574	-116.233	-34.3928	-70.9285	-146.93	15.6599	-34.9597	-148.905	-3.45967	-51.9701	-143.611	-34.0249	-60.595	-167.418	8.59077	-17.7004	-164.457	-9.51742	-32.1275	-163.686	-33.4223	-39.8545	-149.188	49.7294	8.06215	-151.542	59.9564	34.3538	-122.079	61.43	17.7531	
34	0.283333	-95.3605	52.4241	38.7319	-68.0002	31.964	31.7864	-54.9643	8.53019	19.5672	-54.4906	-15.8733	9.78537	-91.6594	13.2048	-25.4225	-73.4606	-18.1598	-24.215	-65.8471	-32.9643	-4.01198	-113.336	2.70603	-37.2953	-100.59	-23.3088	-48.7123	-80.687	-52.3604	-45.2269	-135.052	-3.97488	-26.0388	-122.227	-26.5967	-41.6244	-108.764	-54.3995	-40.0282	-151.97	-10.9007	-4.90448	-141.998	-33.6124	-20.4403	-128.354	-54.5254	-22.6484	-150.42	35.0465	7.6199	-160.261	50.3612	34.1891	-130.192	55.7904	15.5621	
35	0.291667	-103.609	62.8737	42.352	-70.828	49.1626	36.2347	-50.38	32.4795	31.206	-39.2456	8.85113	27.5137	-76.0617	18.3452	-16.4921	-46.4888	0.442553	-7.20916	-38.4242	-8.34791	16.2488	-93.5424	-4.85493	-25.2121	-67.1542	-20.2093	-30.2553	-39.6991	-37.651	-21.3908	-110.46	-15.2844	-15.0206	-88.3156	-33.8938	-24.8418	-67.1605	-49.5337	-19.0276	-124.946	-26.7259	0.867588	-107.547	-44.0524	-5.60496	-91.6093	-59.2394	-2.33549	-145.435	17.1331	7.70865	-163.293	32.078	29.7348	-133.952	48.8051	17.1213	
36	0.3	-115.11	68.647	39.3019	-80.5449	67.613	36.0495	-53.9767	60.6473	33.6656	-29.748	45.4188	32.4972	-68.83	28.3851	-10.2336	-39.2912	24.7586	-3.32283	-25.4734	23.0909	24.7675	-76.6648	5.40268	-16.603	-47.4183	0.123019	-21.1932	-16.4498	-9.56471	-9.6632	-88.4086	-11.197	-5.04929	-63.71	-20.6654	-12.6701	-30.6267	-27.896	-6.91895	-95.7742	-24.5472	10.7559	-75.7036	-34.5523	6.3629	-52.28	-46.1967	9.93812	-135.27	5.3395	15.1424	-156.064	15.4744	30.0785	-135.646	40.2167	16.2745	
37	0.308333	-125.575	65.0495	32.3652	-94.9047	79.4878	25.4039	-68.738	82.7934	22.927	-41.4362	76.7189	21.1645	-67.2943	41.3287	-16.4126	-39.4194	50.8193	-8.93445	-28.1624	60.3695	17.6743	-71.0713	13.7445	-17.1344	-40.4089	17.1716	-24.9724	-8.59066	21.9844	-17.9832	-73.623	-4.22606	-4.47494	-44.52	-2.69509	-15.5629	-13.6495	-3.56816	-11.0964	-79.4187	-17.5395	16.8313	-54.4019	-22.0727	10.9373	-32.2341	-20.6342	7.30053	-124.679	3.07128	16.9634	-145.77	-0.856222	35.2303	-135.904	33.6168	12.1588	
38	0.316667	-134.546	50.9556	27.7396	-115.782	78.7922	14.4312	-89.9529	90.0493	3.12807	-65.4978	87.3644	2.64112	-82.3562	41.4919	-26.7553	-56.2343	64.8595	-26.8727	-43.64	76.8053	-1.56631	-73.7171	17.9842	-27.4568	-44.8492	26.1243	-39.5568	-13.335	42.6219	-40.8309	-65.8906	2.32453	-12.4452	-41.5506	5.98806	-24.7111	-15.0261	16.2075	-28.2674	-61.1573	-8.48055	11.4388	-38.6224	-8.29491	5.19127	-12.6248	0.186107	-1.2487	-109.538	-8.4273	21.1755	-130.272	-9.72663	39.146	-136.005	16.5116	13.4445	
39	0.325	-136.92	25.3191	26.9908	-130.614	49.8097	7.60074	-112.568	68.7528	-15.1319	-85.8259	74.3986	-23.7102	-89.996	22.7357	-37.7917	-77.0502	46.4929	-45.5581	-68.8408	72.5004	-24.0436	-72.2564	-1.7735	-34.6594	-54.3132	13.1638	-54.8817	-34.9838	33.497	-64.9072	-63.7172	-8.16392	-17.767	-41.7467	-0.876186	-36.0441	-19.0538	15.7302	-48.0161	-48.7271	-10.6744	4.90722	-30.2151	-3.5143	-7.11398	-12.0104	12.0228	-18.0897	-96.893	-22.9086	22.9707	-107.348	-26.1717	49.1574	-129.268	-8.53496	21.4711	
40	0.333333	-143.038	0.0928892	30.015	-141.029	19.496	5.26206	-133.661	35.7349	-20.0145	-112.988	46.3542	-35.254	-102.924	-9.74012	-39.2678	-98.0481	17.3597	-52.0844	-90.7313	43.8566	-39.9359	-82.4789	-28.9316	-35.6033	-72.6033	-17.574	-61.1339	-63.5666	8.35355	-82.7193	-65.4966	-30.8299	-19.4987	-53.188	-24.9904	-43.6835	-39.8353	-4.56549	-64.9554	-52.9211	-25.1017	0.800554	-34.8012	-17.714	-15.8086	-24.5865	-4.83727	-35.2187	-84.5273	-41.9954	26.5094	-95.4143	-42.0796	56.1667	-121.3	-36.7307	31.1433	
41	0.341667	-151.135	-28.7216	39.4091	-152.9	-10.8131	15.2784	-151.197	3.16617	-18.2634	-133.366	8.88421	-35.675	-127.386	-46.0188	-31.6508	-124.442	-23.3239	-51.6296	-115.056	5.81444	-47.3162	-101.588	-64.3319	-33.1499	-98.3162	-55.8648	-61.5086	-88.9618	-33.7946	-85.6717	-81.1473	-62.9721	-18.4636	-76.7407	-58.9361	-46.1097	-68.8813	-43.1543	-70.3679	-61.6959	-53.9778	-2.72071	-52.0663	-48.1723	-24.2852	-41.8433	-35.7708	-46.3352	-94.3617	-67.3896	31.678	-100.021	-63.5675	60.5418	-129.964	-62.1835	41.838	
42	0.35	-161.707	-45.2943	42.1289	-169.805	-28.593	15.9275	-162.455	-23.0981	-15.4718	-151.031	-18.6767	-34.0206	-156.177	-73.0203	-25.4217	-149.231	-49.8831	-49.365	-136.908	-20.8205	-49.9564	-131.816	-93.8958	-29.4023	-128.622	-89.3141	-57.6842	-125.441	-69.4742	-87.9678	-109.46	-93.9167	-16.4295	-102.705	-93.7454	-45.5773	-99.8644	-82.3245	-71.0687	-87.0978	-87.2915	-3.81964	-80.6081	-85.7905	-27.2897	-74.1171	-78.4952	-49.722	-116.691	-92.0501	38.3132	-115.475	-84.5569	65.8495	-147.401	-80.9313	49.0589	
43	0.358333	-177.974	-41.2808	41.1591	-177.518	-29.8678	11.765	-175.358	-23.2048	-16.3268	-163.225	-26.0163	-43.0542	-180.633	-77.6338	-27.4155	-175.993	-59.0277	-50.8886	-154.957	-37.715	-56.7178	-168.464	-102.327	-24.6984	-170.595	-98.8064	-58.8054	-159.891	-87.4898	-85.9307	-150.733	-108.932	-19.8572	-147.673	-112.021	-43.4797	-137.666	-105.613	-72.4692	-128.656	-108.843	-7.89955	-120.709	-111.159	-28.8728	-114.51	-108.021	-50.3323	-152.528	-102.196	35.3268	-143.161	-95.4994	65.3717	-176.659	-79.0719	49.513	
